# Blender v2.90.0 OBJ File: 'environment.blend'
# www.blender.org
mtllib wall1.mtl
o Wall1_Plane.001
v -0.863836 0.000000 1.000000
v 1.000000 0.000000 1.000000
v -0.962020 0.000000 -1.000000
v 1.000000 0.000000 -1.000000
v -1.000000 1.558445 1.000000
v -0.962020 1.558445 -1.000000
v -0.843569 1.558445 -1.000000
v -1.000000 1.693320 1.000000
v -0.843569 1.693320 -1.000000
v -0.707405 1.693320 1.000000
v -0.727877 1.693320 -1.000000
v -1.000000 1.805570 1.000000
v -0.727877 1.805570 -1.000000
v -1.000000 0.155693 1.000000
v -0.962020 0.155693 -1.000000
v -0.962020 0.297398 -1.000000
v -1.000000 0.297398 1.000000
v -1.000000 0.155693 -1.000000
v -1.000000 0.297398 -1.000000
v 0.936777 1.805570 1.000000
v 0.936777 1.805570 -1.000000
v -0.962020 0.000000 0.800000
v -0.962020 1.558445 0.800000
v -0.843569 1.693320 0.800000
v -0.707405 1.693320 0.800000
v -0.707405 1.805571 0.800000
v -0.962020 0.155693 0.800000
v -0.962020 0.297398 0.800000
v -1.000000 0.155693 0.800000
v -1.000000 0.297398 0.800000
v -0.825856 0.000000 1.000000
v -0.843569 1.558445 0.800000
v -0.843569 1.558445 1.000000
v -0.825856 0.155693 1.000000
v -0.707405 1.558445 0.800000
v -0.707405 1.558445 1.000000
v -0.591713 1.693320 0.800000
v -0.591713 1.693320 1.000000
v -0.591713 1.805571 0.800000
v -0.591713 1.805570 1.000000
v -0.825856 0.297398 1.000000
v -0.825856 0.155693 0.800000
v -0.825856 0.297398 0.800000
v -0.863836 0.297398 1.000000
v -0.863836 0.155693 1.000000
v -0.863836 0.155693 0.800000
v -0.863836 0.297398 0.800000
v -1.000000 0.000000 1.000000
v -0.825856 0.000000 0.800000
v 0.400000 0.000000 -1.000000
v 0.400000 0.000000 1.000000
v 0.400000 0.000000 0.800000
v 0.600000 0.000000 -1.000000
v 0.600000 0.000000 0.800000
v 0.600000 0.000000 1.000000
v -0.400000 0.000000 -1.000000
v -0.400000 0.000000 1.000000
v -0.400000 0.000000 0.800000
v -0.600000 0.000000 -1.000000
v -0.600000 0.000000 1.000000
v -0.600000 0.000000 0.800000
v 0.936777 1.805571 0.800000
v 1.000000 0.000000 0.800000
vt 0.002311 0.308848
vt 0.002311 0.279655
vt 0.314323 0.308848
vt 0.002311 0.400740
vt 0.314323 0.400740
vt 0.314323 0.619339
vt 0.002311 0.619339
vt 0.002311 0.646249
vt 0.314323 0.646249
vt 0.314323 0.669628
vt 0.002311 0.669628
vt 0.314323 0.692343
vt 0.002311 0.692343
vt 0.314323 0.718774
vt 0.002311 0.718774
vt 0.002311 0.335758
vt 0.314323 0.335758
vt 0.314323 0.363010
vt 0.002311 0.363010
vt 0.410006 0.084288
vt 0.410006 0.101307
vt 0.385443 0.101307
vt 0.385443 0.084288
vt 0.002311 0.369593
vt 0.314323 0.369593
vt 0.314323 0.394156
vt 0.002311 0.394156
vt 0.353834 0.637083
vt 0.353834 0.676233
vt 0.319166 0.676233
vt 0.319166 0.637083
vt 0.644444 0.002311
vt 0.644444 0.025913
vt 0.619881 0.025913
vt 0.619881 0.002311
vt 0.671432 0.002311
vt 0.671432 0.025913
vt 0.385443 0.077704
vt 0.410006 0.077704
vt 0.353834 0.572365
vt 0.353834 0.578949
vt 0.319166 0.578949
vt 0.319166 0.572365
vt 0.353834 0.610095
vt 0.319166 0.610095
vt 0.319166 0.603512
vt 0.353834 0.603512
vt 0.353834 0.286718
vt 0.319166 0.286718
vt 0.319166 0.267260
vt 0.353834 0.267260
vt 0.353834 0.330151
vt 0.319166 0.330151
vt 0.319166 0.306772
vt 0.353834 0.306772
vt 0.353834 0.353754
vt 0.319166 0.353754
vt 0.358455 0.002311
vt 0.377913 0.053029
vt 0.377913 0.073083
vt 0.358455 0.073083
vt 0.378509 0.140513
vt 0.378509 0.159970
vt 0.358455 0.159970
vt 0.358455 0.140513
vt 0.401292 0.029426
vt 0.377913 0.002311
vt 0.401292 0.002311
vt 0.671432 0.032497
vt 0.644444 0.032497
vt 0.382058 0.112512
vt 0.382058 0.135891
vt 0.358455 0.135891
vt 0.358455 0.112512
vt 0.628595 0.104820
vt 0.410006 0.107891
vt 0.385443 0.107890
vt 0.358455 0.107890
vt 0.353834 0.002311
vt 0.319166 0.002311
vt 0.628595 0.084287
vt 0.358455 0.084288
vt 0.401292 0.053029
vt 0.619881 0.032497
vt 0.319166 0.849573
vt 0.353834 0.849573
vt 0.353834 0.884241
vt 0.319166 0.884241
vt 0.314323 0.106315
vt 0.002311 0.106315
vt 0.002311 0.071647
vt 0.314323 0.071647
vt 0.353834 0.953577
vt 0.319166 0.953577
vt 0.002311 0.002311
vt 0.314323 0.002311
vt 0.319166 0.710901
vt 0.353834 0.710901
vt 0.314323 0.244987
vt 0.002311 0.244987
vt 0.314323 0.279655
vt 0.314544 0.997689
vt 0.002532 0.732739
vt 0.002531 0.997688
vn 0.0000 1.0000 0.0000
vn 1.0000 0.0000 0.0000
vn 0.0000 -1.0000 0.0000
vn 0.9999 0.0000 -0.0114
vn 0.0000 0.0000 -1.0000
vn 0.0000 0.0000 1.0000
vn 0.9999 0.0140 0.0000
usemtl None
s off
f 49/1/1 61/2/1 59/3/1
f 28/4/2 16/5/2 6/6/2 23/7/2
f 32/8/2 7/9/2 9/10/2 24/11/2
f 24/11/3 9/10/3 11/12/3 25/13/3
f 25/13/4 11/12/4 13/14/4 26/15/4
f 22/16/2 3/17/2 15/18/2 27/19/2
f 28/20/5 47/21/5 46/22/5 27/23/5
f 29/24/2 18/25/2 19/26/2 30/27/2
f 27/19/1 15/18/1 18/25/1 29/24/1
f 31/28/1 60/29/1 61/30/1 49/31/1
f 16/5/3 28/4/3 30/27/3 19/26/3
f 14/32/6 45/33/6 44/34/6 17/35/6
f 14/32/6 48/36/6 1/37/6 45/33/6
f 28/20/5 27/23/5 29/38/5 30/39/5
f 41/40/3 44/41/3 47/42/3 43/43/3
f 34/44/1 42/45/1 46/46/1 45/47/1
f 45/47/2 46/46/2 47/42/2 44/41/2
f 31/28/2 49/31/2 42/45/2 34/44/2
f 38/48/2 37/49/2 39/50/2 40/51/2
f 36/52/2 35/53/2 25/54/2 10/55/2
f 33/56/3 32/57/3 35/53/3 36/52/3
f 41/40/7 43/43/7 32/57/7 33/56/7
f 12/58/6 10/59/6 38/60/6 40/61/6
f 25/62/5 26/63/5 39/64/5 37/65/5
f 33/66/6 8/67/6 5/68/6
f 31/69/6 34/70/6 45/33/6 1/37/6
f 32/71/5 24/72/5 25/73/5 35/74/5
f 32/75/5 43/76/5 47/21/5
f 46/22/5 42/77/5 49/78/5
f 10/55/3 25/54/3 37/49/3 38/48/3
f 39/50/3 20/79/3 40/51/3
f 20/79/3 39/50/3 62/80/3
f 10/59/6 12/58/6 8/67/6
f 32/75/5 47/21/5 28/20/5 23/81/5
f 59/3/1 3/17/1 22/16/1 49/1/1
f 22/82/5 27/23/5 46/22/5 49/78/5
f 6/6/3 7/9/3 32/8/3 23/7/3
f 33/66/6 10/59/6 8/67/6
f 10/59/6 33/66/6 36/83/6
f 44/34/6 33/66/6 5/68/6 17/35/6
f 41/84/6 33/66/6 44/34/6
f 52/85/1 51/86/1 55/87/1 54/88/1
f 50/89/1 52/90/1 54/91/1 53/92/1
f 2/93/1 63/94/1 54/88/1 55/87/1
f 53/92/1 54/91/1 63/95/1 4/96/1
f 58/97/1 57/98/1 51/86/1 52/85/1
f 56/99/1 58/100/1 52/90/1 50/89/1
f 61/30/1 60/29/1 57/98/1 58/97/1
f 59/101/1 61/2/1 58/100/1 56/99/1
f 13/14/3 21/102/3 26/15/3
f 26/15/3 21/102/3 39/103/3
f 62/104/3 39/103/3 21/102/3
